<svg xmlns="http://www.w3.org/2000/svg" xmlns:xlink="http://www.w3.org/1999/xlink" width="100" zoomAndPan="magnify" viewBox="0 0 75 74.999997" height="100" preserveAspectRatio="xMidYMid meet" version="1.2"><defs><clipPath id="52464102c9"><path d="M 0 2.203125 L 75 2.203125 L 75 72.703125 L 0 72.703125 Z M 0 2.203125 "/></clipPath></defs><g id="9739666860"><g clip-rule="nonzero" clip-path="url(#52464102c9)"><path style=" stroke:none;fill-rule:nonzero;fill:#c8102e;fill-opacity:1;" d="M 42.574219 2.203125 C 39.34375 2.179688 36.597656 2.679688 33.570312 3.210938 C 26.464844 4.449219 17.902344 7.476562 11.769531 12.710938 C 7.574219 16.285156 3.339844 21.6875 1.730469 28.488281 C 0.851562 32.125 0.75 35.90625 1.425781 39.585938 C 1.667969 40.988281 3.667969 42.289062 3.667969 40.007812 C 3.890625 14.621094 24.8125 9.902344 25.550781 9.75 C 25.8125 9.695312 26.078125 9.648438 26.3125 9.585938 C 26.640625 9.492188 26.980469 9.460938 27.320312 9.496094 C 27.398438 9.511719 27.46875 9.566406 27.503906 9.636719 C 27.574219 9.773438 27.523438 9.941406 27.386719 10.011719 C 25.707031 10.789062 19.191406 13.015625 15.652344 16.113281 C 12.0625 19.269531 7.347656 24.335938 5.875 33.078125 C 5.625 34.585938 5.382812 42.320312 6.105469 47.761719 C 6.519531 50.898438 8.664062 55.136719 10.09375 56.960938 C 13.929688 61.859375 20.5625 66.035156 24.171875 67.308594 C 26.496094 68.125 29.261719 68.371094 30.679688 68.707031 C 30.882812 68.734375 31.035156 68.910156 31.03125 69.113281 C 31.03125 69.339844 30.84375 69.519531 30.621094 69.515625 C 28.320312 69.878906 22.769531 68.605469 18.203125 66.359375 C 14.757812 64.671875 12.394531 62.355469 10.078125 59.851562 C 7.527344 57.082031 6.167969 54.230469 5.222656 54.421875 C 3.667969 54.738281 4.984375 58.058594 5.671875 59.339844 C 8.023438 63.726562 12.738281 67.53125 15.078125 68.808594 C 20.636719 71.761719 26.921875 73.082031 33.203125 72.609375 C 47.621094 71.398438 56.488281 64.480469 60.414062 59.066406 C 62.714844 55.890625 67.863281 49.203125 67.742188 39.425781 C 67.742188 37.867188 67.875 27.042969 64.316406 21.402344 C 63.511719 20.117188 61.09375 14.851562 51.933594 10.371094 C 51.226562 10.023438 48.09375 8.449219 45.539062 8.378906 C 44.46875 8.347656 42.292969 8.257812 42.496094 6.976562 C 42.640625 6.082031 47.980469 7.265625 48.535156 7.425781 C 52.367188 8.464844 57.289062 11.414062 60.703125 14.007812 C 71.300781 22.097656 70.234375 39.203125 70.234375 39.203125 C 69.78125 57.410156 59.128906 65.105469 51.460938 69.667969 C 51.324219 69.753906 50.765625 70.453125 50.945312 70.726562 C 51.125 71.003906 51.476562 70.976562 51.859375 70.9375 C 54.789062 70.648438 57.664062 68.460938 60.117188 66.539062 C 72.753906 56.65625 73.398438 48.929688 74.101562 46.015625 C 75.132812 41.785156 75.183594 33.21875 74.695312 30.558594 C 74.695312 30.558594 72.207031 9.917969 54.464844 4.332031 C 49.511719 2.773438 45.800781 2.226562 42.574219 2.203125 Z M 1.808594 44.03125 C -0.78125 43.976562 0.0664062 48.140625 0.453125 49.53125 C 0.597656 50.148438 0.925781 50.707031 1.390625 51.136719 C 1.882812 51.535156 2.472656 51.796875 3.09375 51.898438 C 4.199219 52.097656 4.480469 51.195312 4.398438 50.785156 C 4.21875 49.84375 4.121094 48.894531 4.105469 47.9375 C 4.042969 46.875 3.933594 45.609375 3.234375 44.738281 C 2.890625 44.296875 2.367188 44.039062 1.808594 44.03125 Z M 1.808594 44.03125 "/></g><path style=" stroke:none;fill-rule:nonzero;fill:#ffffff;fill-opacity:1;" d="M 44.898438 16.097656 L 45.082031 16.109375 C 45.863281 16.300781 45.910156 17.046875 46.089844 17.792969 C 46.308594 18.730469 46.515625 19.636719 46.8125 20.59375 C 46.839844 20.78125 46.898438 20.960938 46.988281 21.128906 C 47.253906 21.257812 47.53125 21.355469 47.824219 21.421875 C 49.882812 22.085938 51.921875 22.648438 53.847656 23.414062 C 54.90625 23.828125 56 24.308594 56.996094 24.78125 C 57.476562 25.011719 57.96875 25.261719 58.472656 25.554688 C 58.976562 25.847656 59.671875 26.207031 59.683594 26.917969 L 59.660156 27.117188 C 59.546875 27.710938 59.054688 28.175781 58.457031 28.25 C 58.222656 28.265625 57.984375 28.257812 57.75 28.238281 C 56.082031 28.203125 54.355469 28.230469 52.746094 28.257812 C 47.078125 28.367188 41.539062 28.585938 36.25 29.1875 C 29.160156 30.003906 22.371094 31.03125 15.539062 31.996094 L 15.332031 31.980469 C 14.886719 31.953125 14.542969 31.609375 14.519531 31.160156 L 14.539062 31.015625 C 14.695312 30.539062 15.109375 30.320312 15.472656 30.070312 C 15.726562 29.890625 15.980469 29.726562 16.214844 29.566406 C 18.75 27.949219 21.394531 26.527344 24.125 25.3125 C 25.054688 24.902344 26.148438 24.503906 27.113281 24.089844 C 27.386719 24.011719 27.621094 23.839844 27.777344 23.601562 C 28.320312 22.832031 28.820312 22.039062 29.320312 21.292969 C 29.757812 20.636719 30.15625 19.972656 30.652344 19.335938 C 30.789062 19.117188 30.976562 18.933594 31.195312 18.804688 C 31.335938 18.765625 31.480469 18.738281 31.625 18.71875 C 33.796875 18.320312 35.871094 17.863281 38.019531 17.449219 C 40.28125 17.011719 42.597656 16.492188 44.898438 16.097656 Z M 33.804688 30.707031 C 34.203125 30.835938 34.28125 31.035156 34.144531 31.292969 C 34.007812 31.546875 32.285156 34.289062 31.628906 34.933594 C 31.214844 35.335938 30.617188 35.476562 30.144531 35.273438 C 29.660156 35.078125 29.714844 34.203125 29.875 33.820312 C 30.039062 33.433594 30.367188 32.578125 31.519531 31.746094 C 32.660156 30.921875 33.804688 30.707031 33.804688 30.707031 Z M 55.171875 33.386719 C 55.425781 33.414062 55.855469 33.707031 55.617188 34.515625 C 55.386719 35.324219 54.886719 36.46875 55.007812 36.832031 C 55.136719 37.214844 55.417969 37.382812 55.742188 37.410156 C 56.0625 37.449219 56.945312 37.5625 56.984375 37.730469 C 57.027344 37.894531 57.027344 38.183594 56.8125 38.324219 C 56.597656 38.46875 55.359375 39.035156 54.65625 38.996094 C 53.949219 38.964844 53.1875 38.601562 53.058594 38.242188 C 53.058594 38.242188 51.601562 39.351562 50.882812 39.617188 C 50.152344 39.898438 49.308594 40.230469 48.394531 40.023438 C 48.207031 39.980469 48.046875 39.910156 47.910156 39.824219 C 47.960938 40.113281 47.597656 40.527344 46.671875 40.953125 C 45.6875 41.402344 44.253906 41.46875 43.644531 41.457031 C 43.046875 41.425781 41.351562 41.386719 40.738281 41.445312 C 40.113281 41.507812 39.457031 41.6875 39.382812 41.691406 C 39.292969 41.699219 38.667969 41.671875 39.03125 40.691406 C 39.394531 39.714844 40.402344 38.972656 40.402344 38.972656 L 44.441406 35.613281 C 44.441406 35.613281 41.027344 36.109375 40.46875 35.882812 C 40.207031 35.785156 39.894531 35.507812 39.824219 35.230469 C 39.824219 35.230469 39.597656 34.660156 39.949219 34.328125 C 40.046875 34.230469 40.265625 34.121094 40.429688 34.109375 C 40.589844 34.109375 40.703125 34.171875 40.945312 34.199219 C 41.164062 34.234375 45.195312 33.574219 45.195312 33.574219 C 45.195312 33.574219 46.445312 33.355469 47.121094 34.046875 C 47.695312 34.644531 46.644531 35.785156 46.644531 35.785156 C 46.644531 35.785156 43.136719 39.421875 43.015625 39.464844 C 43.015625 39.464844 43.996094 39.554688 44.273438 39.578125 C 44.546875 39.605469 46.125 39.84375 46.671875 39.753906 C 47.214844 39.660156 47.335938 39.644531 47.398438 39.625 C 47.4375 39.613281 47.539062 39.582031 47.648438 39.585938 C 47.324219 39.203125 47.242188 38.609375 47.359375 37.878906 C 47.609375 36.328125 51.378906 32.859375 54.617188 33.589844 C 54.617188 33.589844 54.929688 33.359375 55.171875 33.386719 Z M 22.675781 33.546875 C 23.558594 33.539062 24.480469 33.703125 25.316406 34.117188 C 26.878906 34.894531 27.796875 36.910156 27.113281 38.550781 C 25.960938 41.320312 23.480469 42.207031 22.296875 42.578125 C 21.113281 42.949219 20.457031 42.816406 20.394531 42.789062 C 20.238281 42.722656 20.117188 42.476562 20.144531 42.332031 C 20.175781 42.15625 20.304688 42.035156 20.425781 41.953125 C 20.515625 41.890625 21.003906 41.640625 21.703125 41.390625 C 22.617188 41.0625 24.921875 39.644531 24.644531 37.722656 C 24.375 35.792969 21.675781 36.105469 21.675781 36.105469 C 22.519531 36.554688 17.488281 47.800781 17.375 48.097656 C 17.105469 48.796875 16.46875 50.128906 15.746094 50.164062 C 15.015625 50.199219 15.277344 48.273438 15.277344 48.273438 C 15.914062 42.222656 19.847656 36.691406 19.847656 36.691406 C 18.742188 36.859375 18.332031 36.472656 18.28125 36.285156 C 18.246094 36.148438 18.089844 35.425781 19.082031 34.640625 C 19.820312 34.054688 21.199219 33.5625 22.675781 33.546875 Z M 53.371094 35.089844 C 53.371094 35.089844 50.558594 35.507812 49.847656 37.773438 C 49.847656 37.773438 50.503906 37.820312 51.042969 37.609375 C 51.566406 37.410156 52.730469 36.75 52.730469 36.75 C 52.730469 36.75 52.761719 36.453125 52.839844 36.257812 C 52.914062 36.066406 53.371094 35.089844 53.371094 35.089844 Z M 38.296875 35.738281 C 38.648438 35.761719 39.453125 36.050781 39.199219 36.769531 C 39.082031 37.820312 37.207031 39.648438 37.207031 39.648438 L 34.613281 42.332031 C 34.613281 42.332031 35.964844 41.859375 38.28125 42.140625 C 40.597656 42.421875 41.800781 42.511719 42.355469 42.425781 C 42.902344 42.339844 44.085938 42.191406 44.34375 42.078125 C 44.597656 41.96875 44.816406 42.035156 44.902344 42.179688 C 44.992188 42.324219 44.945312 42.546875 44.554688 42.792969 C 44.160156 43.035156 42.804688 43.929688 40.304688 43.953125 C 37.808594 43.976562 36.351562 44.054688 36.351562 44.054688 C 36.351562 44.054688 34.589844 43.988281 33.035156 44.488281 C 33.035156 44.488281 31.273438 45.257812 30.773438 44.707031 C 30.273438 44.15625 30.480469 43.453125 30.765625 43.027344 C 31.179688 42.414062 32.550781 40.734375 36.382812 37.617188 C 36.382812 37.617188 34.457031 38.007812 33.261719 37.941406 C 33.261719 37.941406 31.496094 37.789062 32.03125 36.761719 C 32.03125 36.761719 32.253906 36.183594 32.757812 36.191406 C 33.261719 36.199219 33.859375 36.292969 34.75 36.113281 C 35.644531 35.941406 37.949219 35.714844 38.296875 35.738281 Z M 30.390625 36.21875 C 30.707031 36.207031 30.929688 36.398438 31.019531 37.367188 C 31.136719 38.480469 30.617188 40.113281 29.746094 41.699219 C 29.351562 42.425781 28.621094 44.203125 28.640625 44.382812 C 28.640625 44.382812 28.929688 45.105469 28.054688 45.125 C 27.183594 45.144531 26.609375 43.804688 26.722656 42.730469 C 26.835938 41.652344 27.128906 40.484375 29.835938 36.816406 C 29.835938 36.816406 29.867188 36.292969 30.25 36.230469 C 30.300781 36.222656 30.347656 36.21875 30.390625 36.21875 Z M 49.957031 42.585938 C 50.082031 42.585938 50.21875 42.617188 50.363281 42.695312 C 50.945312 43.007812 50.699219 43.757812 50.699219 43.757812 L 50.003906 45.363281 C 50.003906 45.363281 51.636719 45.085938 52.628906 44.839844 C 54.527344 44.367188 54.84375 44.34375 54.84375 44.34375 C 54.84375 44.34375 55.121094 44.472656 55.074219 44.566406 C 54.957031 44.792969 55.050781 44.6875 54.796875 44.96875 C 54.601562 45.308594 52.335938 46.203125 52.335938 46.203125 C 52.335938 46.203125 50.121094 47.21875 49.148438 47.292969 L 47.554688 51.21875 L 46.273438 54.792969 C 46.273438 54.792969 46.117188 55.085938 45.800781 55.097656 C 45.484375 55.117188 45.328125 54.625 45.320312 54.503906 C 45.300781 54.378906 45.183594 52.570312 45.421875 51.324219 C 45.65625 50.078125 46.535156 47.871094 46.535156 47.871094 C 46.535156 47.871094 44.40625 47.925781 44.320312 47.078125 C 44.402344 45.933594 45.167969 45.925781 45.613281 46.09375 C 45.613281 46.09375 45.78125 46.207031 46.027344 46.152344 C 46.273438 46.097656 47.113281 45.996094 47.113281 45.996094 C 47.113281 45.996094 48.980469 43.140625 49.316406 42.828125 C 49.316406 42.828125 49.582031 42.582031 49.957031 42.585938 Z M 34.855469 45.183594 C 34.988281 45.183594 35.480469 45.183594 35.339844 45.804688 C 35.332031 46.96875 34.535156 50.117188 34.535156 50.117188 L 35.582031 49.714844 C 35.582031 49.714844 35.792969 49.597656 35.90625 49.8125 C 35.976562 49.949219 35.839844 50.125 35.746094 50.257812 C 35.566406 50.519531 35.234375 50.800781 35.234375 50.800781 L 34.28125 51.542969 C 34.28125 51.542969 33.21875 55.847656 32.800781 56.421875 C 32.382812 57 31.871094 57.183594 31.421875 57.152344 C 30.984375 57.121094 30.492188 56.632812 30.609375 55.59375 C 30.71875 54.554688 30.945312 53.246094 30.976562 53.128906 C 30.976562 53.128906 28.054688 54.257812 27.554688 54.308594 C 27.554688 54.308594 26.382812 58.863281 26.011719 59.441406 C 25.679688 60.085938 25.070312 60.382812 24.390625 60.300781 C 23.542969 60.246094 23.429688 59.082031 23.46875 58.457031 C 23.507812 57.835938 23.886719 55.890625 24.347656 54.71875 C 24.347656 54.71875 23.671875 54.734375 23.269531 54.628906 C 22.8125 54.511719 22.46875 54.394531 22.234375 54.027344 C 22.234375 54.027344 22.011719 53.738281 22.109375 53.273438 C 22.21875 52.796875 22.820312 52.585938 22.820312 52.585938 C 23.847656 52.324219 25.359375 52.15625 25.359375 52.15625 C 25.359375 52.15625 28.273438 45.445312 29.496094 45.398438 C 30.9375 45.335938 28.472656 51.628906 28.472656 51.628906 C 28.472656 51.628906 29.535156 51.417969 30.160156 51.289062 C 30.828125 51.152344 31.761719 50.917969 31.761719 50.917969 C 31.761719 50.917969 32.625 47.886719 33.519531 46.539062 C 34.40625 45.1875 34.726562 45.183594 34.855469 45.183594 Z M 43.519531 46.878906 C 44.105469 46.894531 44.125 47.164062 44.113281 47.398438 C 44.113281 47.398438 44.042969 47.953125 43.9375 48.453125 C 43.664062 49.71875 43.445312 52.746094 43.488281 52.8125 C 43.644531 52.949219 43.757812 53.347656 43.257812 53.65625 C 43.257812 53.65625 42.628906 53.757812 42.304688 53.351562 C 42.078125 53.097656 41.523438 52.804688 41.25 51.417969 C 41.25 51.417969 40.257812 52.902344 38.929688 53.570312 C 37.601562 54.238281 37.035156 54.347656 36.222656 53.871094 C 35.40625 53.398438 36.023438 51.628906 36.023438 51.628906 C 36.023438 51.628906 36.71875 49.78125 36.730469 49.738281 C 36.738281 49.691406 36.832031 49.4375 36.757812 49.296875 C 36.757812 49.296875 36.59375 48.949219 36.230469 48.820312 C 35.871094 48.683594 35.8125 48.523438 35.992188 48.332031 C 36.152344 48.152344 36.886719 47.898438 37.617188 47.957031 C 38.351562 48.011719 38.839844 48.765625 38.886719 49.3125 C 38.933594 49.859375 38.832031 50.773438 38.402344 51.769531 C 38.402344 51.769531 41.039062 50.109375 41.726562 49.039062 C 41.726562 49.039062 42.441406 47.574219 42.820312 47.269531 C 42.820312 47.269531 43.171875 46.859375 43.519531 46.878906 Z M 43.519531 46.878906 "/></g></svg>